<!--?xml version="1.0" standalone="no"?-->
              <svg id="sw-js-blob-svg" viewBox="0 0 100 100" xmlns="http://www.w3.org/2000/svg" version="1.1">
                    <defs> 
                        <linearGradient id="sw-gradient" x1="0" x2="1" y1="1" y2="0">
                            <stop id="stop1" stop-color="rgba(254, 131, 97, 1)" offset="0%"></stop>
                            <stop id="stop2" stop-color="rgba(255, 166.954, 142.616, 1)" offset="100%"></stop>
                        </linearGradient>
                    </defs>
                <path fill="none" d="M23,-27.9C28.6,-22.7,31.2,-14.3,33.3,-5.5C35.3,3.4,36.8,12.8,33.7,20.7C30.6,28.7,22.9,35.4,14.4,37.5C5.9,39.7,-3.5,37.5,-10.8,33.3C-18.2,29,-23.5,22.9,-28.6,15.7C-33.7,8.6,-38.6,0.5,-37,-6.1C-35.4,-12.7,-27.3,-17.8,-20.1,-22.8C-12.8,-27.8,-6.4,-32.7,1.1,-34C8.7,-35.4,17.3,-33.2,23,-27.9Z" width="100%" height="100%" transform="translate(50 50)" stroke-width="1" style="transition: all 0.3s ease 0s;" stroke="url(#sw-gradient)"></path>
              </svg>